<svg width="151" height="151" viewBox="0 0 151 151" fill="none" xmlns="http://www.w3.org/2000/svg">
<path d="M31.1734 77.7119L62.8775 86.5301C63.256 86.6393 63.6005 86.8426 63.879 87.1211C64.1575 87.3997 64.3609 87.7442 64.4701 88.1227L73.2883 119.827C73.4256 120.307 73.7157 120.73 74.1148 121.031C74.514 121.332 75.0003 121.495 75.5002 121.495C76.0001 121.495 76.4864 121.332 76.8855 121.031C77.2846 120.73 77.5748 120.307 77.7121 119.827L86.5303 88.1227C86.6395 87.7442 86.8428 87.3997 87.1213 87.1211C87.3998 86.8426 87.7444 86.6393 88.1228 86.5301L119.827 77.7119C120.308 77.5746 120.731 77.2844 121.032 76.8853C121.333 76.4862 121.495 75.9999 121.495 75.5C121.495 75.0001 121.333 74.5138 121.032 74.1147C120.731 73.7156 120.308 73.4254 119.827 73.2881L88.1228 64.4699C87.7444 64.3607 87.3998 64.1574 87.1213 63.8789C86.8428 63.6003 86.6395 63.2558 86.5303 62.8773L77.7121 31.1732C77.5748 30.6925 77.2846 30.2697 76.8855 29.9686C76.4864 29.6676 76.0001 29.5047 75.5002 29.5047C75.0003 29.5047 74.514 29.6676 74.1148 29.9686C73.7157 30.2697 73.4256 30.6925 73.2883 31.1732L64.4701 62.8773C64.3609 63.2558 64.1575 63.6003 63.879 63.8789C63.6005 64.1574 63.256 64.3607 62.8775 64.4699L31.1734 73.2881C30.6927 73.4254 30.2699 73.7156 29.9688 74.1147C29.6677 74.5138 29.5049 75.0001 29.5049 75.5C29.5049 75.9999 29.6677 76.4862 29.9688 76.8853C30.2699 77.2844 30.6927 77.5746 31.1734 77.7119Z" fill="white"/>
</svg>
